HIERARCHY
ROOT Hips
{
	OFFSET 0.000000 88.474243 0.000000
	CHANNELS 6 Xposition Yposition Zposition Zrotation Yrotation Xrotation 
	JOINT Hips_Spine
	{
		OFFSET 0.000000 0.000000 0.000000
		CHANNELS 3 Zrotation Yrotation Xrotation
		JOINT Spine
		{
			OFFSET 0.005100 8.711998 -0.691000
			CHANNELS 3 Zrotation Yrotation Xrotation
			JOINT Spine1
			{
				OFFSET -0.009200 8.660301 -1.275000
				CHANNELS 3 Zrotation Yrotation Xrotation
				JOINT Spine2
				{
					OFFSET 0.006300 9.852501 -1.857000
					CHANNELS 3 Zrotation Yrotation Xrotation
					JOINT Spine2_Neck
					{
						OFFSET 0.000000 0.000000 0.000000
						CHANNELS 3 Zrotation Yrotation Xrotation
						JOINT Neck
						{
							OFFSET 0.016300 11.420799 -0.263300
							CHANNELS 3 Zrotation Yrotation Xrotation
							End Site #name: Head
							{
								OFFSET -0.019200 9.262405 2.362500
							}
						}
					}
					JOINT Spine2_LeftShoulder
					{
						OFFSET 0.000000 0.000000 0.000000
						CHANNELS 3 Zrotation Yrotation Xrotation
						JOINT LeftShoulder
						{
							OFFSET 5.616900 6.732201 -0.345700
							CHANNELS 3 Zrotation Yrotation Xrotation
							JOINT LeftArm
							{
								OFFSET 10.664888 -0.183372 -2.440700
								CHANNELS 3 Zrotation Yrotation Xrotation
								JOINT LeftForeArm
								{
									OFFSET 27.459126 0.000000 0.000000
									CHANNELS 3 Zrotation Yrotation Xrotation
									End Site #name: LeftHand
									{
										OFFSET 21.306858 0.000000 0.000000
									}
								}
							}
						}
					}
					JOINT Spine2_RightShoulder
					{
						OFFSET 0.000000 0.000000 0.000000
						CHANNELS 3 Zrotation Yrotation Xrotation
						JOINT RightShoulder
						{
							OFFSET -5.580300 6.737503 -0.344400
							CHANNELS 3 Zrotation Yrotation Xrotation
							JOINT RightArm
							{
								OFFSET -10.679335 -0.188484 -2.383900
								CHANNELS 3 Zrotation Yrotation Xrotation
								JOINT RightForeArm
								{
									OFFSET -27.503529 0.000000 0.000000
									CHANNELS 3 Zrotation Yrotation Xrotation
									End Site #name: RightHand
									{
										OFFSET -21.306808 0.000000 0.000000
									}
								}
							}
						}
					}
				}
			}
		}
	}
	JOINT Hips_LeftUpLeg
	{
		OFFSET 0.000000 0.000000 0.000000
		CHANNELS 3 Zrotation Yrotation Xrotation
		JOINT LeftUpLeg
		{
			OFFSET 6.857700 -6.739601 0.312100
			CHANNELS 3 Zrotation Yrotation Xrotation
			JOINT LeftLeg
			{
				OFFSET -0.367590 -34.731552 -4.572400
				CHANNELS 3 Zrotation Yrotation Xrotation
				End Site #name: LeftFoot
				{
					OFFSET 0.367590 -34.656704 -6.067400
				}
			}
		}
	}
	JOINT Hips_RightUpLeg
	{
		OFFSET 0.000000 0.000000 0.000000
		CHANNELS 3 Zrotation Yrotation Xrotation
		JOINT RightUpLeg
		{
			OFFSET -6.876100 -6.733299 0.301000
			CHANNELS 3 Zrotation Yrotation Xrotation
			JOINT RightLeg
			{
				OFFSET 0.347353 -34.795158 -4.515900
				CHANNELS 3 Zrotation Yrotation Xrotation
				End Site #name: RightFoot
				{
					OFFSET -0.347353 -34.589367 -6.070300
				}
			}
		}
	}
}
MOTION
Frames: 7
Frame Time: 0.041667
-52.067867 87.103127 17.086849 10.269538 64.127733 -20.794825 0.000000 -0.000000 0.000000 -0.491949 8.521335 -28.102989 -0.634988 -31.777384 -10.166270 0.000000 0.000000 0.000000 -7.606220 -14.749669 -5.701844 -76.876093 10.514381 -19.106433 -12.949640 -3.724466 -2.611010 -93.057427 -16.140046 3.349633 -164.763256 51.399389 -127.561013 179.189349 -27.061423 176.196302 -16.938158 -14.065494 10.030989 66.442985 -7.040926 -14.587137 46.310805 43.344723 -130.994988 -179.628699 18.713972 179.243182 -0.000000 -0.000000 0.000000 45.215747 -14.935147 29.553374 66.219237 20.447143 124.873135 -0.000000 0.000000 0.000000 90.454795 16.111585 4.397354 -23.576407 23.114585 -59.149046 
-53.258709 89.817223 17.715586 9.995865 64.442692 -21.022650 0.000000 -0.000000 0.000000 -0.475317 8.413797 -27.631857 -0.467739 -32.378938 -10.808307 0.000000 0.000000 0.000000 -7.726334 -15.036069 -5.912311 -77.111692 10.623457 -19.336410 -13.368580 -3.676183 -2.811801 -92.970278 -16.307323 3.466211 -164.719579 51.523233 -127.423873 179.224113 -26.866402 176.203661 -17.298680 -14.159730 10.438496 67.528741 -7.884520 -15.648494 46.857132 43.259330 -130.494243 -179.580721 19.295985 179.152324 -0.000000 -0.000000 0.000000 45.862147 -15.214976 29.384598 67.378531 20.176024 125.627231 -0.000000 0.000000 0.000000 90.081501 16.542064 3.855746 -23.444685 23.156396 -58.949585 
-54.503334 92.555183 18.374924 9.714326 64.968438 -21.232819 0.000000 -0.000000 0.000000 -0.440754 8.278800 -27.032173 -0.292399 -33.005251 -11.461117 0.000000 0.000000 0.000000 -7.828992 -15.367318 -6.175904 -77.287244 10.587126 -19.532701 -13.818796 -3.607643 -2.982890 -92.845921 -16.443977 3.533200 -164.732760 51.657947 -127.317634 179.249271 -26.687950 176.209702 -17.673501 -14.280021 10.886795 68.734806 -8.662611 -16.612339 47.378622 43.264825 -130.018720 -179.509674 19.814362 179.047750 -0.000000 -0.000000 0.000000 46.547271 -15.565505 28.968364 68.512850 19.835439 126.404900 -0.000000 0.000000 0.000000 89.777301 17.101660 3.102680 -23.230579 23.161378 -58.564097 
-55.803852 95.307884 19.058395 9.432281 65.673929 -21.398152 0.000000 -0.000000 0.000000 -0.408936 8.092364 -26.302344 -0.127607 -33.676360 -12.081786 0.000000 0.000000 0.000000 -7.923749 -15.742472 -6.485630 -77.391241 10.431702 -19.734179 -14.288693 -3.526565 -3.104551 -92.659131 -16.566547 3.536196 -164.819550 51.803928 -127.257343 179.259355 -26.452870 176.223278 -18.056374 -14.434303 11.354893 70.059335 -9.248991 -17.472831 47.842494 43.377080 -129.627515 -179.414213 20.223860 178.942868 -0.000000 -0.000000 0.000000 47.291372 -15.962727 28.340912 69.545166 19.504097 127.054406 -0.000000 0.000000 0.000000 89.624675 17.762185 2.284431 -22.952946 23.156549 -58.049288 
-57.159855 98.066757 19.759209 9.145942 66.565747 -21.521158 0.000000 -0.000000 0.000000 -0.408076 7.828084 -25.508254 -0.031028 -34.330786 -12.688012 0.000000 0.000000 0.000000 -8.013980 -16.156104 -6.826309 -77.412732 10.133791 -19.953394 -14.785086 -3.422414 -3.206733 -92.415544 -16.679356 3.504965 -164.990753 51.949427 -127.213435 179.260189 -26.238698 176.240741 -18.426125 -14.614815 11.813926 71.499509 -9.621110 -18.201142 48.201226 43.630636 -129.319270 -179.314456 20.488405 178.824236 -0.000000 -0.000000 0.000000 48.034752 -16.427385 27.600251 70.321800 19.161282 127.551121 -0.000000 0.000000 0.000000 89.529038 18.599816 1.212684 -22.533584 23.175764 -57.289420 
-58.559330 100.830261 20.466501 8.849458 67.648938 -21.580639 0.000000 -0.000000 0.000000 -0.392763 7.553980 -24.683710 0.048290 -34.957317 -13.291839 0.000000 0.000000 0.000000 -8.072826 -16.602448 -7.184058 -77.356396 9.705987 -20.187594 -15.265400 -3.308084 -3.270383 -92.088565 -16.775663 3.415141 -165.212185 52.119309 -127.171972 179.249701 -26.015023 176.262877 -18.775879 -14.793091 12.228369 72.970060 -9.805878 -18.823910 48.483949 44.027053 -129.088255 -179.209664 20.610865 178.705491 -0.000000 -0.000000 0.000000 48.813511 -16.944587 26.638893 70.803187 18.861412 127.962490 -0.000000 -0.000000 0.000000 89.394767 19.627368 -0.074230 -21.989967 23.253542 -56.423147 
-59.988903 103.604164 21.169664 8.549364 68.901826 -21.577213 0.000000 -0.000000 0.000000 -0.366389 7.279778 -23.935657 0.102828 -35.551568 -13.762361 0.000000 0.000000 0.000000 -8.098937 -17.060884 -7.565833 -77.219012 9.163163 -20.498331 -15.732146 -3.177597 -3.292706 -91.671043 -16.842014 3.255556 -165.469728 52.286549 -127.116409 179.236688 -25.817336 176.290195 -19.097217 -14.961017 12.602249 74.451722 -9.831434 -19.313571 48.657672 44.564654 -128.967625 -179.082300 20.673634 178.588378 -0.000000 -0.000000 0.000000 49.568181 -17.626534 25.458074 70.993983 18.768521 128.150399 -0.000000 -0.000000 0.000000 89.186252 20.659429 -1.230237 -21.400468 23.327355 -55.790818 
